<?xml version="1.0" standalone="no"?>
<!DOCTYPE svg PUBLIC "-//W3C//DTD SVG 20010904//EN"
 "http://www.w3.org/TR/2001/REC-SVG-20010904/DTD/svg10.dtd">
<svg version="1.0" xmlns="http://www.w3.org/2000/svg"
 width="1163.000000pt" height="894.000000pt" viewBox="0 0 1163.000000 894.000000"
 preserveAspectRatio="xMidYMid meet">

<g transform="translate(0.000000,894.000000) scale(0.100000,-0.100000)"
fill="#000000" stroke="none">
<path d="M5505 8605 c-246 -40 -445 -112 -915 -330 -318 -147 -457 -205 -775
-322 -394 -145 -582 -228 -745 -328 -330 -203 -509 -408 -695 -798 -75 -156
-113 -250 -240 -592 -99 -265 -178 -453 -295 -705 -274 -589 -350 -846 -350
-1181 0 -324 79 -585 360 -1194 125 -271 202 -457 300 -730 220 -609 353 -858
580 -1085 63 -64 158 -146 210 -183 169 -120 573 -305 970 -445 163 -57 377
-146 615 -254 493 -226 678 -296 911 -344 113 -24 152 -28 314 -28 154 0 205
3 300 22 247 49 466 132 938 351 222 104 375 166 706 291 556 208 764 312 981
491 285 235 436 498 720 1263 103 276 170 434 313 746 168 365 246 583 293
815 33 158 33 422 1 585 -50 254 -109 410 -354 940 -113 244 -151 336 -270
654 -252 677 -374 903 -614 1138 -224 220 -486 359 -1109 589 -276 101 -431
166 -730 304 -408 189 -607 263 -845 316 -126 28 -442 35 -575 14z m695 -1201
c253 -83 439 -149 434 -154 -11 -11 -861 -340 -877 -340 -20 0 -877 333 -877
341 0 6 837 294 866 297 7 1 211 -64 454 -144z m-1583 -414 c58 -53 217 -161
292 -200 413 -209 960 -259 1446 -133 99 26 270 90 356 133 77 39 202 124 278
189 40 35 74 61 77 58 3 -2 -5 -33 -16 -68 -50 -148 -131 -303 -208 -398 l-36
-44 30 -20 c60 -42 172 -164 212 -232 117 -198 132 -425 44 -642 -40 -98 -92
-172 -182 -256 -178 -168 -426 -232 -664 -171 -155 40 -279 122 -390 257 l-38
47 -21 -28 c-91 -122 -222 -216 -366 -263 -85 -28 -109 -32 -211 -32 -135 0
-208 16 -325 73 -298 144 -465 498 -385 816 34 135 90 234 189 334 47 48 95
92 105 98 18 9 17 12 -16 53 -53 65 -126 182 -158 252 -24 54 -80 209 -80 222
0 12 16 1 67 -45z m894 -50 c128 -49 239 -90 246 -90 7 0 117 41 245 90 128
50 236 90 240 90 4 0 8 -74 8 -164 0 -186 10 -167 -95 -185 -139 -24 -336 -33
-483 -21 -134 10 -304 36 -377 58 l-30 8 -3 152 c-1 87 1 152 7 152 5 0 114
-40 242 -90z m424 -1675 l103 -110 -104 -175 c-57 -96 -109 -175 -115 -175 -7
0 -58 79 -115 175 l-102 174 71 78 c40 43 86 94 102 113 17 19 36 34 44 32 7
-1 60 -51 116 -112z m-2717 -1417 l2 -398 165 0 166 0 -3 -97 -3 -98 -265 0
-265 0 -3 498 -2 498 102 -3 103 -3 3 -397z m1082 307 l0 -95 -170 0 -170 0 0
-100 0 -100 135 0 136 0 -3 -97 -3 -98 -132 -3 -133 -3 0 -104 0 -105 170 0
170 0 0 -100 0 -100 -267 2 -268 3 -3 498 -2 497 270 0 270 0 0 -95z m781
-385 c71 -261 129 -485 129 -498 0 -22 -2 -23 -97 -20 l-98 3 -30 108 -30 107
-109 -2 -109 -3 -18 -65 c-9 -36 -22 -84 -28 -107 l-12 -43 -95 0 c-71 0 -96
3 -100 14 -4 10 203 803 252 969 5 16 17 17 111 15 l106 -3 128 -475z m794
456 c58 -27 107 -78 126 -133 10 -26 14 -91 14 -213 0 -158 -2 -179 -21 -220
-22 -46 -51 -82 -80 -98 -15 -8 -9 -25 45 -144 33 -74 61 -143 61 -152 0 -14
-14 -16 -100 -16 -116 0 -98 -15 -174 150 -52 114 -53 115 -89 118 l-36 3 -3
-133 -3 -133 -95 0 -95 0 -3 498 -2 497 202 0 c192 0 206 -2 253 -24z m703
-196 c51 -118 97 -219 103 -224 5 -6 9 76 9 217 l0 228 103 -3 102 -3 0 -495
0 -495 -100 0 -99 0 -102 228 c-55 125 -104 230 -107 234 -4 3 -7 -100 -7
-230 l0 -237 -100 0 -100 0 0 500 0 501 102 -3 103 -3 93 -215z m800 -182 l2
-398 165 0 166 0 -3 -97 -3 -98 -265 0 -265 0 -3 498 -2 498 102 -3 103 -3 3
-397z m722 277 l65 -124 65 124 65 125 98 0 c53 0 97 -4 97 -9 0 -5 -48 -121
-107 -258 l-108 -248 -5 -240 -5 -240 -100 0 -100 0 -5 245 -5 245 -108 240
c-59 132 -107 246 -107 253 0 9 26 12 98 12 l97 0 65 -125z m-4446 -1421 c9
-8 16 -27 16 -42 -1 -26 -1 -26 -15 6 -12 28 -19 33 -42 30 -28 -3 -28 -4 -31
-83 -4 -108 1 -127 36 -123 21 2 30 11 39 38 l12 35 0 -32 c1 -55 -42 -79 -87
-47 -20 14 -22 23 -22 106 0 71 4 96 17 110 20 22 56 23 77 2z m188 -1 c15
-13 18 -32 18 -109 0 -89 -1 -94 -25 -110 -27 -17 -73 -12 -87 9 -4 7 -8 53
-8 104 0 70 4 95 16 107 20 21 63 20 86 -1z m143 -78 l43 -90 1 87 c1 48 6 90
11 93 6 4 10 -37 10 -114 0 -90 -3 -121 -12 -121 -7 0 -31 42 -53 93 l-40 92
-3 -92 c-4 -138 -22 -115 -22 28 0 80 4 119 11 117 5 -2 30 -44 54 -93z m190
6 c21 -45 43 -81 47 -81 4 0 8 39 8 86 0 54 4 83 10 79 6 -4 10 -55 10 -121 0
-142 -14 -148 -67 -29 -19 44 -39 84 -44 90 -5 5 -9 -30 -9 -83 0 -55 -4 -92
-10 -92 -11 0 -14 222 -4 233 11 11 18 2 59 -82z m245 80 c0 -6 -21 -11 -47
-13 l-48 -3 -3 -42 -3 -43 50 0 c28 0 51 -4 51 -10 0 -5 -22 -10 -50 -10 l-50
0 0 -45 0 -45 49 0 c28 0 53 -4 56 -10 4 -6 -18 -10 -59 -10 l-66 0 0 113 c0
63 3 117 7 120 10 11 113 8 113 -2z m144 -7 c17 -17 22 -64 7 -64 -5 0 -11 12
-13 28 -3 23 -8 27 -33 27 l-30 0 0 -100 0 -100 30 0 c24 0 31 5 33 25 5 38
22 49 22 15 0 -40 -10 -54 -46 -61 -52 -10 -64 12 -64 121 0 102 10 125 55
125 13 0 31 -7 39 -16z m191 7 c3 -5 -7 -11 -22 -13 l-28 -3 -3 -107 c-4 -143
-22 -141 -22 2 l0 110 -26 0 c-14 0 -23 4 -19 10 8 13 112 13 120 1z m335 0
c0 -6 -21 -11 -47 -13 l-48 -3 -3 -42 -3 -43 50 0 c28 0 51 -4 51 -10 0 -5
-22 -10 -50 -10 l-50 0 0 -45 0 -45 49 0 c28 0 53 -4 56 -10 4 -6 -18 -10 -59
-10 l-66 0 0 113 c0 63 3 117 7 120 10 11 113 8 113 -2z m131 -116 c12 -34 7
-40 54 68 14 32 30 55 35 52 13 -8 13 -235 0 -235 -5 0 -11 42 -12 93 l-3 92
-25 -62 c-14 -35 -30 -63 -36 -63 -7 0 -23 28 -37 63 l-26 62 -1 -92 c0 -55
-4 -93 -10 -93 -12 0 -14 223 -2 234 7 7 38 -52 63 -119z m248 112 c33 -16 46
-60 31 -98 -10 -23 -23 -32 -56 -41 -42 -12 -44 -14 -44 -50 0 -21 -4 -38 -10
-38 -6 0 -10 47 -10 120 l0 120 33 0 c17 0 43 -6 56 -13z m189 -3 c20 -14 22
-23 22 -109 0 -86 -2 -95 -22 -109 -28 -20 -58 -20 -84 -2 -16 13 -19 27 -19
111 0 84 3 98 19 111 26 18 56 18 84 -2z m107 -85 c10 -53 21 -86 25 -78 4 8
15 49 24 92 10 42 21 77 26 77 5 0 16 -35 26 -77 9 -43 20 -84 24 -92 4 -8 15
25 25 78 10 50 21 94 26 97 14 8 10 -23 -15 -129 -34 -140 -39 -141 -63 -13
-9 47 -20 86 -23 86 -3 0 -14 -39 -23 -86 -24 -128 -29 -127 -63 13 -25 106
-29 137 -15 129 5 -3 16 -47 26 -97z m350 91 c4 -6 -13 -10 -44 -10 l-51 0 0
-45 0 -45 44 0 c25 0 48 -4 51 -10 4 -6 -13 -10 -44 -10 l-51 0 0 -45 0 -45
50 0 c28 0 50 -4 50 -10 0 -6 -27 -10 -60 -10 l-60 0 0 120 0 120 54 0 c30 0
58 -4 61 -10z m168 -21 c21 -26 17 -71 -9 -100 -15 -17 -14 -22 9 -64 15 -27
21 -45 14 -45 -7 0 -23 20 -36 45 -18 34 -30 45 -47 45 -22 0 -24 -4 -24 -45
0 -25 -4 -45 -10 -45 -6 0 -10 47 -10 121 l0 122 47 -6 c33 -3 53 -12 66 -28z
m277 -80 c32 -113 35 -129 21 -129 -5 0 -12 16 -15 36 -7 33 -9 35 -44 32 -31
-3 -38 -7 -46 -35 -5 -18 -13 -33 -18 -33 -5 0 -7 8 -4 18 3 9 17 60 31 112
27 98 34 114 42 107 2 -3 17 -51 33 -108z m156 7 l43 -91 1 93 c0 54 4 92 10
92 6 0 10 -45 10 -115 0 -88 -3 -115 -13 -115 -7 0 -32 42 -55 93 l-41 92 -1
-92 c0 -55 -4 -93 -10 -93 -6 0 -10 47 -10 121 0 87 3 118 11 113 7 -4 31 -48
55 -98z m226 74 c14 -17 18 -40 18 -94 0 -94 -15 -116 -76 -116 l-44 0 0 121
0 122 42 -6 c27 -4 49 -14 60 -27z m223 -201 c39 -6 39 -6 -12 -8 l-53 -1 0
113 c0 63 3 117 8 121 4 4 9 -43 12 -106 l5 -113 40 -6z m205 222 c0 -6 -21
-11 -47 -13 l-48 -3 -3 -42 -3 -43 50 0 c28 0 51 -4 51 -10 0 -5 -22 -10 -50
-10 l-50 0 0 -45 0 -45 49 0 c28 0 53 -4 56 -10 4 -6 -18 -10 -59 -10 l-66 0
0 113 c0 63 3 117 7 120 10 11 113 8 113 -2z m143 -28 c4 -16 17 -68 31 -116
15 -54 20 -87 13 -84 -6 2 -15 18 -19 36 -8 30 -12 32 -45 29 -32 -3 -38 -7
-45 -35 -5 -18 -13 -33 -18 -33 -5 0 -7 6 -5 13 2 6 16 55 30 107 14 52 28
101 30 108 7 20 22 6 28 -25z m214 11 c20 -27 16 -81 -6 -101 -20 -16 -19 -17
5 -58 27 -46 29 -55 14 -55 -6 0 -20 20 -32 45 -17 34 -28 45 -45 45 -21 0
-23 -5 -23 -45 0 -25 -4 -45 -10 -45 -6 0 -10 47 -10 121 l0 122 47 -6 c29 -3
52 -12 60 -23z m147 -69 l45 -90 0 87 c1 48 6 90 11 93 6 4 10 -37 10 -114 0
-92 -3 -121 -13 -121 -7 0 -31 42 -52 92 l-40 93 -3 -93 c-4 -137 -22 -114
-22 29 0 74 4 119 10 117 5 -1 29 -43 54 -93z m-3034 -134 c0 -5 -7 -14 -15
-21 -13 -10 -15 -9 -15 9 0 12 6 21 15 21 8 0 15 -4 15 -9z"/>
<path d="M5095 6376 c-233 -57 -392 -294 -358 -532 35 -246 232 -414 482 -414
214 1 396 138 456 345 19 65 22 194 5 256 -32 120 -130 245 -236 301 -102 55
-236 72 -349 44z m220 -278 c56 -30 97 -90 110 -161 18 -96 -62 -212 -163
-236 -98 -24 -199 28 -243 124 -20 44 -24 110 -10 149 9 23 12 24 41 13 44
-17 84 6 88 51 2 19 -2 39 -8 47 -34 41 112 51 185 13z"/>
<path d="M6305 6376 c-129 -32 -262 -141 -315 -260 -83 -181 -50 -392 81 -531
102 -108 210 -155 354 -155 169 0 308 74 400 213 131 197 100 459 -74 619
-120 110 -289 153 -446 114z m201 -268 c2 -3 0 -17 -5 -32 -25 -63 39 -118 99
-86 23 12 28 5 36 -52 10 -70 -11 -126 -66 -179 -62 -61 -124 -78 -202 -55
-86 25 -158 115 -158 198 0 137 120 241 253 217 21 -3 40 -9 43 -11z"/>
<path d="M3112 3753 l-2 -413 180 0 c113 0 180 4 180 10 0 6 -65 10 -175 10
l-175 0 -3 403 -2 402 -3 -412z"/>
<path d="M3850 3755 l0 -405 183 2 182 3 -178 2 -177 3 2 198 3 197 145 5 145
6 -147 2 -148 2 0 190 0 190 178 3 177 2 -182 3 -183 2 0 -405z"/>
<path d="M4822 4128 c-5 -18 -33 -113 -62 -211 -28 -98 -50 -181 -47 -183 2
-2 30 85 61 193 32 109 62 202 66 207 5 5 18 -25 30 -65 12 -41 49 -162 81
-268 33 -107 59 -199 59 -203 0 -4 -74 -8 -164 -8 -149 0 -165 2 -168 18 -2 9
-21 -43 -42 -116 -21 -74 -36 -136 -34 -138 3 -2 12 24 22 58 9 35 24 87 32
116 l15 52 174 0 173 0 10 -27 c6 -16 11 -23 11 -18 1 26 -185 619 -196 622
-6 2 -16 -11 -21 -29z"/>
<path d="M4822 3790 c-13 -47 -25 -93 -28 -102 -5 -16 2 -18 51 -18 l57 0 -7
29 c-3 16 -16 62 -28 102 l-23 73 -22 -84z"/>
<path d="M4691 3679 c-7 -22 -11 -43 -8 -45 2 -2 9 14 16 37 7 22 11 43 8 45
-2 2 -9 -14 -16 -37z"/>
<path d="M5051 3474 c0 -11 3 -14 6 -6 3 7 2 16 -1 19 -3 4 -6 -2 -5 -13z"/>
<path d="M5522 3748 c1 -227 4 -351 5 -275 l4 137 110 0 110 0 62 -130 c34
-71 65 -130 70 -130 4 0 -22 59 -58 130 -45 89 -61 132 -53 134 7 3 30 10 50
16 80 24 101 87 96 284 -3 130 -5 144 -27 175 -41 57 -87 71 -238 71 l-133 0
2 -412z m314 376 c64 -47 69 -62 72 -222 3 -137 1 -150 -20 -192 -37 -72 -69
-84 -225 -88 l-133 -4 0 267 0 267 139 -4 c122 -3 143 -6 167 -24z"/>
<path d="M5620 3885 l0 -167 71 4 c63 3 74 7 95 31 22 26 24 37 24 136 0 135
-9 147 -118 157 l-72 7 0 -168z"/>
<path d="M6370 4140 c0 -10 8 -24 18 -29 10 -5 29 -32 42 -60 13 -28 25 -49
27 -47 6 6 -70 156 -79 156 -4 0 -8 -9 -8 -20z"/>
<path d="M6780 3774 c0 -256 -3 -383 -10 -379 -6 4 -5 -5 2 -19 6 -14 15 -26
20 -26 4 0 8 182 8 405 0 263 -3 405 -10 405 -6 0 -10 -135 -10 -386z"/>
<path d="M6585 3740 c69 -137 127 -250 130 -250 3 0 -51 113 -120 250 -69 138
-127 250 -130 250 -3 0 51 -112 120 -250z"/>
<path d="M7272 3753 l-2 -413 180 0 c113 0 180 4 180 10 0 6 -65 10 -175 10
l-175 0 -3 403 -2 402 -3 -412z"/>
<path d="M7971 4159 c-1 -3 41 -91 92 -195 l92 -189 5 -220 6 -220 2 215 c2
164 6 221 17 240 8 14 14 30 14 35 0 6 -7 -3 -16 -20 l-16 -29 -98 194 c-54
107 -98 192 -98 189z"/>
<path d="M8275 4004 c-41 -87 -75 -160 -74 -163 0 -8 84 155 125 247 61 133
26 74 -51 -84z"/>
<path d="M3771 2691 c-19 -12 -26 -138 -9 -171 16 -29 42 -37 63 -20 19 16 21
170 3 188 -14 14 -37 15 -57 3z"/>
<path d="M5400 2639 l0 -61 33 7 c42 9 50 18 50 56 0 36 -24 59 -60 59 -21 0
-23 -4 -23 -61z"/>
<path d="M5580 2681 c-5 -11 -10 -51 -10 -90 0 -73 13 -101 49 -101 32 0 41
22 41 105 0 50 -5 86 -12 93 -18 18 -56 14 -68 -7z"/>
<path d="M6190 2645 c0 -52 1 -55 25 -55 26 0 65 31 65 53 0 27 -31 57 -61 57
-29 0 -29 -1 -29 -55z"/>
<path d="M6507 2634 c-22 -77 -22 -74 13 -74 34 0 34 3 16 79 l-12 55 -17 -60z"/>
<path d="M6852 2598 c3 -97 4 -103 25 -106 12 -2 31 6 42 17 17 17 21 34 21
89 0 77 -16 102 -64 102 l-27 0 3 -102z"/>
<path d="M7481 2639 c-8 -30 -16 -60 -18 -66 -4 -9 5 -13 26 -13 36 0 37 8 18
84 l-13 48 -13 -53z"/>
<path d="M7640 2645 c0 -49 2 -55 21 -55 39 0 59 19 59 55 0 36 -20 55 -59 55
-19 0 -21 -6 -21 -55z"/>
</g>
</svg>
